<svg width="18" height="18" viewBox="0 0 18 18" fill="none" xmlns="http://www.w3.org/2000/svg">
<path fill-rule="evenodd" clip-rule="evenodd" d="M5.58162 5.7182C5.49371 5.80259 5.37449 5.85 5.25017 5.85C5.12585 5.85 5.00662 5.80259 4.91872 5.7182C4.83081 5.63381 4.78143 5.51935 4.78143 5.4V2.7C4.78143 2.58065 4.83081 2.46619 4.91872 2.3818C5.00662 2.29741 5.12585 2.25 5.25017 2.25C5.37449 2.25 5.49371 2.29741 5.58162 2.3818C5.66953 2.46619 5.71891 2.58065 5.71891 2.7V5.4C5.71891 5.51935 5.66953 5.63381 5.58162 5.7182ZM14.1562 4.05H15.6796C15.7892 4.05176 15.8973 4.07422 15.9978 4.11611C16.0984 4.158 16.1893 4.21849 16.2655 4.29412C16.3417 4.36976 16.4016 4.45906 16.4418 4.55693C16.482 4.6548 16.5017 4.75931 16.4999 4.8645V14.9355C16.5017 15.0407 16.482 15.1452 16.4418 15.2431C16.4016 15.3409 16.3417 15.4302 16.2655 15.5059C16.1893 15.5815 16.0984 15.642 15.9978 15.6839C15.8973 15.7258 15.7892 15.7482 15.6796 15.75H2.32042C2.21085 15.7482 2.1027 15.7258 2.00217 15.6839C1.90165 15.642 1.8107 15.5815 1.73452 15.5059C1.65835 15.4302 1.59844 15.3409 1.55822 15.2431C1.518 15.1452 1.49826 15.0407 1.50012 14.9355V4.8645C1.49826 4.75931 1.518 4.6548 1.55822 4.55693C1.59844 4.45906 1.65835 4.36976 1.73452 4.29412C1.8107 4.21849 1.90165 4.158 2.00217 4.11611C2.1027 4.07422 2.21085 4.05176 2.32042 4.05H3.84383V4.95H2.43761V14.85H15.5624V4.95H14.1562V4.05ZM5.24994 7.65H4.31245V8.55H5.24994V7.65ZM7.12491 7.65H8.06239V8.55H7.12491V7.65ZM10.8748 7.65H9.93736V8.55H10.8748V7.65ZM12.7498 7.65H13.6873V8.55H12.7498V7.65ZM5.24994 9.9H4.31245V10.8H5.24994V9.9ZM7.12491 9.9H8.06239V10.8H7.12491V9.9ZM10.8748 9.9H9.93736V10.8H10.8748V9.9ZM12.7498 9.9H13.6873V10.8H12.7498V9.9ZM5.24994 12.15H4.31245V13.05H5.24994V12.15ZM7.12491 12.15H8.06239V13.05H7.12491V12.15ZM10.8748 12.15H9.93736V13.05H10.8748V12.15ZM12.7498 12.15H13.6873V13.05H12.7498V12.15ZM12.7503 5.85C12.8746 5.85 12.9938 5.80259 13.0817 5.7182C13.1696 5.63381 13.219 5.51935 13.219 5.4V2.7C13.219 2.58065 13.1696 2.46619 13.0817 2.3818C12.9938 2.29741 12.8746 2.25 12.7503 2.25C12.626 2.25 12.5067 2.29741 12.4188 2.3818C12.3309 2.46619 12.2815 2.58065 12.2815 2.7V5.4C12.2815 5.51935 12.3309 5.63381 12.4188 5.7182C12.5067 5.80259 12.626 5.85 12.7503 5.85ZM11.344 4.05H6.65663V4.95H11.344V4.05Z" fill="#5A82B1"/>
</svg>