<svg width="18" height="18" viewBox="0 0 18 18" fill="none" xmlns="http://www.w3.org/2000/svg">
<path fill-rule="evenodd" clip-rule="evenodd" d="M17.3337 9.00033C17.3337 13.6028 13.6028 17.3337 9.00033 17.3337C4.39783 17.3337 0.666992 13.6028 0.666992 9.00033C0.666992 4.39783 4.39783 0.666992 9.00033 0.666992C13.6028 0.666992 17.3337 4.39783 17.3337 9.00033ZM5.75949 12.2412C5.68138 12.163 5.6375 12.0571 5.6375 11.9466C5.6375 11.8361 5.68138 11.7301 5.75949 11.652L8.41116 9.00033L5.75949 6.34866C5.68359 6.27007 5.6416 6.16482 5.64254 6.05557C5.64349 5.94633 5.68731 5.84182 5.76457 5.76457C5.84182 5.68731 5.94633 5.64349 6.05557 5.64254C6.16482 5.6416 6.27007 5.68359 6.34866 5.75949L9.00033 8.41116L11.652 5.75949C11.7306 5.68359 11.8358 5.6416 11.9451 5.64254C12.0543 5.64349 12.1588 5.68731 12.2361 5.76457C12.3133 5.84182 12.3572 5.94633 12.3581 6.05557C12.3591 6.16482 12.3171 6.27007 12.2412 6.34866L9.58949 9.00033L12.2412 11.652C12.3171 11.7306 12.3591 11.8358 12.3581 11.9451C12.3572 12.0543 12.3133 12.1588 12.2361 12.2361C12.1588 12.3133 12.0543 12.3572 11.9451 12.3581C11.8358 12.3591 11.7306 12.3171 11.652 12.2412L9.00033 9.58949L6.34866 12.2412C6.27052 12.3193 6.16456 12.3632 6.05408 12.3632C5.94359 12.3632 5.83763 12.3193 5.75949 12.2412Z" fill="white"/>
</svg>
