<svg width="12" height="12" viewBox="0 0 12 12" fill="none" xmlns="http://www.w3.org/2000/svg">
<path d="M6.70597 0.271377C6.3155 -0.0891568 5.68137 -0.0891568 5.2909 0.271377L0.292854 4.88621C-0.0976181 5.24674 -0.0976181 5.83225 0.292854 6.19278C0.683327 6.55331 1.31745 6.55331 1.70793 6.19278L6 2.2298L10.2921 6.1899C10.6825 6.55043 11.3167 6.55043 11.7071 6.1899C12.0976 5.82936 12.0976 5.24386 11.7071 4.88332L6.7091 0.268492L6.70597 0.271377ZM11.704 10.424L6.70597 5.80917C6.3155 5.44864 5.68137 5.44864 5.2909 5.80917L0.292854 10.424C-0.0976181 10.7845 -0.0976181 11.37 0.292854 11.7306C0.683327 12.0911 1.31745 12.0911 1.70793 11.7306L6 7.76759L10.2921 11.7277C10.6825 12.0882 11.3167 12.0882 11.7071 11.7277C12.0976 11.3672 12.0976 10.7817 11.7071 10.4211L11.704 10.424Z" fill="#E20000"/>
</svg>
