<svg width="17" height="18" viewBox="0 0 17 18" fill="none" xmlns="http://www.w3.org/2000/svg">
<path d="M8.61649 0.667766C3.93023 0.604471 0.104471 4.43023 0.167766 9.11649C0.230261 13.6109 3.88977 17.2704 8.38414 17.3329C13.0712 17.397 16.8962 13.5712 16.8321 8.88494C16.7704 4.38977 13.1109 0.730261 8.61649 0.667766ZM7.94388 8.37818L10.009 6.01462C10.1209 5.88659 10.279 5.80825 10.4487 5.79683C10.6183 5.78541 10.7855 5.84185 10.9135 5.95373C11.0416 6.06561 11.1199 6.22376 11.1313 6.3934C11.1428 6.56304 11.0863 6.73026 10.9744 6.85829L8.90933 9.22185C8.85394 9.28524 8.7866 9.3371 8.71116 9.37447C8.63572 9.41184 8.55366 9.43398 8.46966 9.43964C8.38567 9.44529 8.30138 9.43435 8.22161 9.40743C8.14185 9.38051 8.06816 9.33814 8.00477 9.28274C7.94138 9.22734 7.88952 9.16001 7.85215 9.08457C7.81478 9.00913 7.79264 8.92707 7.78698 8.84307C7.78133 8.75908 7.79227 8.67479 7.81919 8.59502C7.84611 8.51525 7.88848 8.44157 7.94388 8.37818ZM6.38713 12.0177C6.26694 12.1378 6.10397 12.2052 5.93405 12.2052C5.76413 12.2052 5.60116 12.1378 5.48097 12.0177L3.56008 10.0948C3.50058 10.0352 3.45339 9.96452 3.42121 9.88673C3.38903 9.80895 3.37248 9.72558 3.37252 9.6414C3.37256 9.55722 3.38917 9.47387 3.42142 9.3961C3.45367 9.31835 3.50092 9.2477 3.56048 9.1882C3.62003 9.1287 3.69072 9.08151 3.76851 9.04933C3.84629 9.01715 3.92966 9.00061 4.01384 9.00064C4.09802 9.00068 4.18138 9.0173 4.25914 9.04955C4.3369 9.0818 4.40754 9.12905 4.46704 9.1886L6.38994 11.1115C6.50968 11.2321 6.57665 11.3952 6.57612 11.5652C6.5756 11.7351 6.50762 11.8978 6.38713 12.0177ZM13.4698 6.85829L8.98785 11.986C8.93011 12.0522 8.85938 12.1058 8.78006 12.1435C8.70074 12.1812 8.61452 12.2022 8.52676 12.2051H8.50512C8.4209 12.2052 8.3375 12.1886 8.25968 12.1563C8.18187 12.1241 8.11118 12.0768 8.05164 12.0173L6.13115 10.0944C6.01098 9.97409 5.94352 9.81101 5.94359 9.641C5.94367 9.47098 6.01128 9.30796 6.13155 9.1878C6.25182 9.06763 6.4149 9.00017 6.58491 9.00024C6.75493 9.00032 6.91795 9.06793 7.03811 9.1882L8.23191 10.3832C8.26295 10.4142 8.30003 10.4386 8.34085 10.4547C8.38168 10.4708 8.42538 10.4784 8.46925 10.4769C8.51312 10.4755 8.55623 10.465 8.59589 10.4462C8.63555 10.4274 8.67092 10.4006 8.69982 10.3676L12.5055 6.01462C12.6174 5.88659 12.7756 5.80825 12.9452 5.79683C13.1149 5.78541 13.2821 5.84185 13.4101 5.95373C13.5381 6.06561 13.6165 6.22376 13.6279 6.3934C13.6393 6.56304 13.5829 6.73026 13.471 6.85829H13.4698Z" fill="white"/>
</svg>
