<svg width="44" height="44" viewBox="0 0 44 44" fill="none" xmlns="http://www.w3.org/2000/svg">
<path d="M36.7211 12.4061C36.9789 12.6639 37.125 13.0119 37.125 13.3771V39.876C37.125 40.6365 36.5105 41.251 35.75 41.251H8.25C7.48945 41.251 6.875 40.6365 6.875 39.876V4.12598C6.875 3.36543 7.48945 2.75098 8.25 2.75098H26.4988C26.8641 2.75098 27.2164 2.89707 27.4742 3.15488L36.7211 12.4061ZM33.9539 14.0088L25.8672 5.92207V14.0088H33.9539ZM24.7216 20.5332L22.0911 24.9289L19.4348 20.5314C19.3888 20.4555 19.3241 20.3927 19.2468 20.3491C19.1695 20.3055 19.0822 20.2826 18.9935 20.2827H17.3418C17.2444 20.2827 17.1491 20.3102 17.0668 20.3621C17.0094 20.3983 16.9598 20.4453 16.9207 20.5006C16.8815 20.556 16.8537 20.6185 16.8387 20.6845C16.8238 20.7506 16.822 20.819 16.8334 20.8858C16.8449 20.9526 16.8694 21.0164 16.9056 21.0737L20.4437 26.6777L16.8579 32.3831C16.8062 32.4653 16.7788 32.5605 16.7789 32.6577C16.7789 32.7944 16.8332 32.9256 16.9299 33.0223C17.0266 33.119 17.1577 33.1733 17.2945 33.1733H18.7752C18.8631 33.1733 18.9496 33.1507 19.0264 33.1079C19.1032 33.065 19.1677 33.0032 19.2139 32.9284L21.908 28.5683L24.585 32.9275C24.6311 33.0026 24.6958 33.0647 24.7727 33.1077C24.8497 33.1507 24.9364 33.1733 25.0246 33.1733H26.635C26.7338 33.1733 26.8304 33.1449 26.9135 33.0916C26.9705 33.0551 27.0197 33.0076 27.0584 32.9521C27.097 32.8965 27.1244 32.8338 27.1388 32.7676C27.1532 32.7015 27.1545 32.6331 27.1425 32.5665C27.1306 32.4998 27.1056 32.4362 27.069 32.3792L23.467 26.7696L27.1322 21.0776C27.1857 20.9942 27.214 20.8973 27.2138 20.7983C27.2138 20.6615 27.1595 20.5304 27.0628 20.4337C26.9661 20.337 26.835 20.2827 26.6982 20.2827H25.1642C25.0751 20.2827 24.9876 20.3059 24.9101 20.3498C24.8326 20.3938 24.7678 20.4571 24.7221 20.5336L24.7216 20.5332Z" fill="#007C30"/>
</svg>
