<svg width="25" height="24" viewBox="0 0 25 24" fill="none" xmlns="http://www.w3.org/2000/svg">
<path d="M13.2474 2.75137C12.7787 2.28275 12.0189 2.28275 11.5503 2.75137L3.1503 11.1514C2.68167 11.62 2.68167 12.3798 3.1503 12.8484C3.61893 13.3171 4.37873 13.3171 4.84736 12.8484L5.19883 12.497V20.3999C5.19883 21.0626 5.73609 21.5999 6.39883 21.5999H8.79883C9.46157 21.5999 9.99883 21.0626 9.99883 20.3999V17.9999C9.99883 17.3372 10.5361 16.7999 11.1988 16.7999H13.5988C14.2616 16.7999 14.7988 17.3372 14.7988 17.9999V20.3999C14.7988 21.0626 15.3361 21.5999 15.9988 21.5999H18.3988C19.0616 21.5999 19.5988 21.0626 19.5988 20.3999V12.497L19.9503 12.8484C20.4189 13.3171 21.1787 13.3171 21.6474 12.8484C22.116 12.3798 22.116 11.62 21.6474 11.1514L13.2474 2.75137Z" fill="#188F41"/>
</svg>

