<svg width="40" height="39" viewBox="0 0 40 39" fill="none" xmlns="http://www.w3.org/2000/svg">
<ellipse cx="19.7976" cy="19.2976" rx="19.2976" ry="19.2976" fill="#C39F1D" fill-opacity="0.2"/>
<path d="M20 12.2563C20.3275 12.2563 20.6518 12.3208 20.9543 12.4461C21.2569 12.5714 21.5318 12.7551 21.7633 12.9867C21.9949 13.2182 22.1786 13.4931 22.3039 13.7957C22.4292 14.0982 22.4938 14.4225 22.4938 14.75C22.4938 15.0775 22.4292 15.4018 22.3039 15.7043C22.1786 16.0069 21.9949 16.2818 21.7633 16.5133C21.5318 16.7449 21.2569 16.9286 20.9543 17.0539C20.6518 17.1792 20.3275 17.2438 20 17.2438C19.3386 17.2438 18.7043 16.981 18.2367 16.5133C17.769 16.0457 17.5062 15.4114 17.5062 14.75C17.5062 14.0886 17.769 13.4543 18.2367 12.9867C18.7043 12.519 19.3386 12.2563 20 12.2563ZM20 22.9437C23.5269 22.9437 27.2437 24.6775 27.2437 25.4375V26.7437H12.7563V25.4375C12.7563 24.6775 16.4731 22.9437 20 22.9437ZM20 10C17.3756 10 15.25 12.1256 15.25 14.75C15.25 17.3744 17.3756 19.5 20 19.5C22.6244 19.5 24.75 17.3744 24.75 14.75C24.75 12.1256 22.6244 10 20 10ZM20 20.6875C16.8294 20.6875 10.5 22.2787 10.5 25.4375V29H29.5V25.4375C29.5 22.2787 23.1706 20.6875 20 20.6875Z" fill="#C39F1D"/>
</svg>
