<svg width="40" height="40" viewBox="0 0 40 40" fill="none" xmlns="http://www.w3.org/2000/svg">
<ellipse cx="20.2859" cy="19.7976" rx="19.2976" ry="19.2976" fill="#038C95" fill-opacity="0.2"/>
<path d="M23.8179 13.7838C23.8179 12.7435 22.5884 12.1915 21.8106 12.8825L17.4757 16.7358C17.3434 16.8537 17.1724 16.919 16.9951 16.9192H13.4448C12.8691 16.9192 12.3169 17.1478 11.9097 17.5548C11.5026 17.9618 11.2737 18.5138 11.2734 19.0895V23.4293C11.2734 24.0052 11.5022 24.5574 11.9094 24.9646C12.3166 25.3718 12.8689 25.6006 13.4448 25.6006H16.9961C17.1729 25.6008 17.3435 25.6657 17.4757 25.783L20.4895 28.4619C20.6273 27.9792 20.8654 27.531 21.1882 27.1466L18.4378 24.7012C18.0404 24.3476 17.527 24.1522 16.9951 24.1521H13.4448C13.2528 24.1521 13.0687 24.0758 12.933 23.9401C12.7972 23.8044 12.721 23.6203 12.721 23.4283V19.0895C12.721 18.8976 12.7972 18.7135 12.933 18.5778C13.0687 18.442 13.2528 18.3658 13.4448 18.3658H16.9961C17.528 18.3656 18.0414 18.1702 18.4388 17.8167L22.3713 14.3213V25.9461L23.8188 24.4985V13.7838H23.8179ZM28.6816 15.5237C29.7649 16.9844 30.4111 18.7226 30.5451 20.5361C30.0787 20.344 29.5733 20.2656 29.0705 20.3074C28.9063 18.8866 28.3711 17.5341 27.5188 16.3855C27.4605 16.3093 27.4179 16.2222 27.3935 16.1294C27.3692 16.0365 27.3635 15.9398 27.3769 15.8448C27.3903 15.7497 27.4225 15.6583 27.4715 15.5758C27.5206 15.4933 27.5856 15.4214 27.6627 15.3642C27.7398 15.3071 27.8275 15.2659 27.9207 15.2429C28.0139 15.22 28.1107 15.2158 28.2056 15.2307C28.3004 15.2455 28.3913 15.2791 28.473 15.3294C28.5548 15.3797 28.6257 15.4458 28.6816 15.5237ZM26.8674 18.0502C27.3113 18.8705 27.5902 19.794 27.6606 20.7735C27.458 20.899 27.2669 21.0495 27.0913 21.2252L26.1542 22.1622C26.2044 21.8698 26.2305 21.5687 26.2305 21.2618C26.2319 20.381 26.013 19.5138 25.5935 18.7392C25.5483 18.6556 25.52 18.5639 25.5102 18.4693C25.5004 18.3747 25.5093 18.2791 25.5365 18.188C25.5636 18.0968 25.6085 18.0119 25.6684 17.9381C25.7284 17.8643 25.8023 17.803 25.8859 17.7578C25.9696 17.7125 26.0613 17.6842 26.1559 17.6744C26.2505 17.6646 26.3461 17.6736 26.4372 17.7007C26.5284 17.7279 26.6133 17.7727 26.6871 17.8327C26.7609 17.8926 26.8221 17.9666 26.8674 18.0502ZM27.7745 21.9074L22.0789 27.6021C21.7466 27.934 21.5108 28.3499 21.3966 28.8055L20.9556 30.5715C20.9115 30.7473 20.9137 30.9314 20.962 31.1061C21.0103 31.2808 21.1029 31.44 21.231 31.5682C21.3591 31.6964 21.5182 31.7892 21.6929 31.8376C21.8675 31.886 22.0517 31.8883 22.2275 31.8444L23.9935 31.4024C24.4493 31.2886 24.8656 31.0531 25.1979 30.7211L30.8935 25.0264C31.3071 24.6127 31.5394 24.0516 31.5393 23.4666C31.5392 22.8816 31.3067 22.3205 30.893 21.9069C30.4793 21.4933 29.9182 21.261 29.3332 21.2611C28.7482 21.2612 28.1871 21.4937 27.7735 21.9074H27.7745Z" fill="#038C95"/>
</svg>
