<svg width="25" height="24" viewBox="0 0 25 24" fill="none" xmlns="http://www.w3.org/2000/svg">
<path d="M12.7985 2.3999C8.82202 2.3999 5.59847 5.62345 5.59847 9.5999V13.9028L4.74994 14.7514C4.40675 15.0946 4.30408 15.6107 4.48982 16.0591C4.67555 16.5075 5.11312 16.7999 5.59847 16.7999H19.9985C20.4838 16.7999 20.9214 16.5075 21.1071 16.0591C21.2929 15.6107 21.1902 15.0946 20.847 14.7514L19.9985 13.9028V9.5999C19.9985 5.62345 16.7749 2.3999 12.7985 2.3999Z" fill="#656070"/>
<path d="M12.7984 21.5999C10.8102 21.5999 9.19844 19.9881 9.19844 17.9999H16.3984C16.3984 19.9881 14.7867 21.5999 12.7984 21.5999Z" fill="#656070"/>
</svg>
