<svg width="25" height="24" viewBox="0 0 25 24" fill="none" xmlns="http://www.w3.org/2000/svg">
<path fill-rule="evenodd" clip-rule="evenodd" d="M22.2 11.9999C22.2 17.3018 17.9019 21.5999 12.6 21.5999C7.29807 21.5999 3 17.3018 3 11.9999C3 6.69797 7.29807 2.3999 12.6 2.3999C17.9019 2.3999 22.2 6.69797 22.2 11.9999ZM15 8.3999C15 9.72539 13.9255 10.7999 12.6 10.7999C11.2745 10.7999 10.2 9.72539 10.2 8.3999C10.2 7.07442 11.2745 5.9999 12.6 5.9999C13.9255 5.9999 15 7.07442 15 8.3999ZM12.5999 13.1999C10.1789 13.1999 8.09273 14.6338 7.14448 16.6988C8.46484 18.2303 10.4192 19.1999 12.6 19.1999C14.7807 19.1999 16.735 18.2304 18.0554 16.6989C17.1072 14.6339 15.021 13.1999 12.5999 13.1999Z" fill="#656070"/>
</svg>

