<svg width="39" height="39" viewBox="0 0 39 39" fill="none" xmlns="http://www.w3.org/2000/svg">
<ellipse cx="19.3933" cy="19.2976" rx="19.2976" ry="19.2976" fill="#097CE7" fill-opacity="0.2"/>
<path d="M18.0539 23.6667C18.0539 23.8346 17.9872 23.9957 17.8684 24.1145C17.7496 24.2333 17.5885 24.3 17.4206 24.3H15.2039C15.0359 24.3 14.8748 24.2333 14.7561 24.1145C14.6373 23.9957 14.5706 23.8346 14.5706 23.6667C14.5706 23.4987 14.6373 23.3376 14.7561 23.2188C14.8748 23.1001 15.0359 23.0333 15.2039 23.0333H17.4206C17.5885 23.0333 17.7496 23.1001 17.8684 23.2188C17.9872 23.3376 18.0539 23.4987 18.0539 23.6667ZM22.8039 23.0333H20.5872C20.4193 23.0333 20.2582 23.1001 20.1394 23.2188C20.0206 23.3376 19.9539 23.4987 19.9539 23.6667C19.9539 23.8346 20.0206 23.9957 20.1394 24.1145C20.2582 24.2333 20.4193 24.3 20.5872 24.3H22.8039C22.9719 24.3 23.133 24.2333 23.2517 24.1145C23.3705 23.9957 23.4372 23.8346 23.4372 23.6667C23.4372 23.4987 23.3705 23.3376 23.2517 23.2188C23.133 23.1001 22.9719 23.0333 22.8039 23.0333ZM28.5039 26.8333C28.5039 27.0013 28.4372 27.1624 28.3184 27.2812C28.1996 27.3999 28.0385 27.4667 27.8706 27.4667H10.1372C9.96927 27.4667 9.80818 27.3999 9.68941 27.2812C9.57063 27.1624 9.50391 27.0013 9.50391 26.8333C9.50391 26.6654 9.57063 26.5043 9.68941 26.3855C9.80818 26.2667 9.96927 26.2 10.1372 26.2H11.4039V16.7C11.4039 16.5824 11.4367 16.4671 11.4985 16.367C11.5603 16.267 11.6488 16.1861 11.754 16.1335C11.8592 16.0809 11.977 16.0587 12.0941 16.0692C12.2113 16.0798 12.3231 16.1228 12.4172 16.1933L16.4706 19.2333V16.7C16.4706 16.5824 16.5033 16.4671 16.5652 16.367C16.627 16.267 16.7155 16.1861 16.8207 16.1335C16.9259 16.0809 17.0436 16.0587 17.1608 16.0692C17.2779 16.0798 17.3898 16.1228 17.4839 16.1933L20.5508 18.4931L21.466 12.0877C21.5103 11.7864 21.6612 11.5109 21.8913 11.3114C22.1214 11.1118 22.4154 11.0013 22.72 11H24.1545C24.4591 11.0013 24.7531 11.1118 24.9832 11.3114C25.2133 11.5109 25.3642 11.7864 25.4085 12.0877L26.596 20.4105C26.596 20.4105 26.6023 20.4723 26.6023 20.5V26.2H27.869C27.9523 26.1998 28.0348 26.216 28.1118 26.2478C28.1889 26.2795 28.2589 26.3261 28.3178 26.3849C28.3768 26.4438 28.4236 26.5137 28.4555 26.5906C28.4875 26.6675 28.5039 26.75 28.5039 26.8333ZM21.7067 19.36L22.3819 19.8667H25.2407L24.1545 12.2667H22.72L21.7067 19.36ZM12.6706 26.2H25.3372V21.1333H22.1706C22.0335 21.1333 21.9002 21.0889 21.7906 21.0067L20.6506 20.1517L17.7372 17.9667V20.5C17.7372 20.6176 17.7045 20.7329 17.6427 20.833C17.5808 20.933 17.4923 21.0139 17.3871 21.0665C17.2819 21.1191 17.1642 21.1413 17.047 21.1308C16.9299 21.1202 16.818 21.0772 16.7239 21.0067L12.6706 17.9667V26.2Z" fill="#097CE7"/>
</svg>
