<svg width="20" height="20" viewBox="0 0 20 20" fill="none" xmlns="http://www.w3.org/2000/svg">
<path d="M17.2646 2.59208C17.4488 2.726 17.5241 2.90458 17.4906 3.12779L15.3477 15.9849C15.3198 16.1468 15.2306 16.2723 15.0799 16.3616C15.0018 16.4062 14.9153 16.4286 14.8204 16.4286C14.759 16.4286 14.6921 16.4146 14.6195 16.3867L10.8277 14.8382L8.80199 17.3075C8.70154 17.4358 8.56483 17.5 8.39183 17.5C8.31929 17.5 8.25791 17.4888 8.20768 17.4665C8.10166 17.4275 8.01656 17.3619 7.95238 17.2698C7.88821 17.1777 7.85612 17.0759 7.85612 16.9643V14.043L15.0883 5.17857L6.14016 12.9213L2.8338 11.5653C2.62733 11.4872 2.51572 11.3337 2.49898 11.1049C2.48782 10.8817 2.5771 10.7171 2.76683 10.611L16.6954 2.57533C16.7791 2.52511 16.8684 2.5 16.9633 2.5C17.0749 2.5 17.1753 2.53069 17.2646 2.59208Z" fill="white"/>
</svg>
