<svg width="40" height="39" viewBox="0 0 40 39" fill="none" xmlns="http://www.w3.org/2000/svg">
<ellipse cx="19.9891" cy="19.2976" rx="19.2976" ry="19.2976" fill="#9C58F2" fill-opacity="0.2"/>
<path fill-rule="evenodd" clip-rule="evenodd" d="M11.3086 10H27.9267V12.6803H26.8546V11.0721H12.3807V23.4017H23.8456V24.4738H11.3086V10ZM27.3906 16.9689C27.8172 16.9689 28.2262 16.7994 28.5278 16.4979C28.8294 16.1963 28.9988 15.7872 28.9988 15.3607C28.9988 14.9342 28.8294 14.5251 28.5278 14.2235C28.2262 13.9219 27.8172 13.7525 27.3906 13.7525C26.9641 13.7525 26.5551 13.9219 26.2535 14.2235C25.9519 14.5251 25.7824 14.9342 25.7824 15.3607C25.7824 15.7872 25.9519 16.1963 26.2535 16.4979C26.5551 16.7994 26.9641 16.9689 27.3906 16.9689ZM28.4794 18.0464C29.1757 18.0464 29.7268 18.3594 30.0876 18.843C30.4248 19.296 30.5674 19.8561 30.5995 20.3735C30.631 20.9041 30.5588 21.4358 30.3867 21.9388C30.2259 22.4052 29.9541 22.8876 29.5349 23.2184V28.4943C29.5353 28.6964 29.4596 28.8911 29.3229 29.0399C29.1862 29.1887 28.9986 29.2806 28.7972 29.2972C28.5959 29.3139 28.3956 29.2542 28.2363 29.13C28.077 29.0057 27.9703 28.8261 27.9374 28.6268L27.2459 24.4738H27.0861L26.3046 28.6423C26.2674 28.839 26.1583 29.0149 25.9984 29.1354C25.8385 29.2559 25.6394 29.3124 25.4401 29.2939C25.2407 29.2754 25.0555 29.1832 24.9205 29.0353C24.7855 28.8875 24.7106 28.6946 24.7103 28.4943V20.8463C24.6031 21.0096 24.4973 21.1738 24.3929 21.3389L24.3511 21.4048L24.3404 21.422L24.3377 21.4268C24.2655 21.5428 24.1649 21.6385 24.0454 21.7048C23.9259 21.7711 23.7914 21.8059 23.6548 21.8058H20.9744C20.7612 21.8058 20.5566 21.7211 20.4059 21.5703C20.2551 21.4195 20.1703 21.215 20.1703 21.0017C20.1703 20.7885 20.2551 20.5839 20.4059 20.4331C20.5566 20.2823 20.7612 20.1976 20.9744 20.1976H23.2136C23.3439 19.9961 23.5154 19.7345 23.6955 19.4718C23.8831 19.1979 24.0901 18.9078 24.2745 18.6805C24.364 18.5696 24.4642 18.4538 24.565 18.3589C24.6143 18.3123 24.683 18.2517 24.7666 18.1981C24.9142 18.1012 25.0865 18.0487 25.263 18.0469L28.4794 18.0464Z" fill="#9C58F2"/>
</svg>
